<svg width="99" height="24" viewBox="0 0 99 24" fill="none" xmlns="http://www.w3.org/2000/svg">
<rect width="99" height="24" rx="12" fill="#FF5722"/>
<path d="M11.3616 16H6.42961V7.432H11.3616V8.92H8.24161V10.804H11.1456V12.292H8.24161V14.5H11.3616V16ZM16.7205 9.328C17.4245 9.328 17.9885 9.52 18.4125 9.904C18.8365 10.28 19.0485 10.888 19.0485 11.728V16H17.2605V12.172C17.2605 11.7 17.1765 11.348 17.0085 11.116C16.8405 10.876 16.5725 10.756 16.2045 10.756C15.6605 10.756 15.2885 10.944 15.0885 11.32C14.8885 11.688 14.7885 12.22 14.7885 12.916V16H13.0005V9.448H14.3685L14.6085 10.288H14.7045C14.8485 10.064 15.0245 9.884 15.2325 9.748C15.4405 9.604 15.6725 9.5 15.9285 9.436C16.1845 9.364 16.4485 9.328 16.7205 9.328ZM23.6472 14.692C23.8472 14.692 24.0392 14.672 24.2232 14.632C24.4072 14.592 24.5912 14.544 24.7752 14.488V15.82C24.5832 15.9 24.3432 15.968 24.0552 16.024C23.7752 16.088 23.4672 16.12 23.1312 16.12C22.7392 16.12 22.3872 16.056 22.0752 15.928C21.7712 15.8 21.5272 15.58 21.3432 15.268C21.1672 14.948 21.0792 14.508 21.0792 13.948V10.792H20.2272V10.036L21.2112 9.436L21.7272 8.056H22.8672V9.448H24.7032V10.792H22.8672V13.948C22.8672 14.196 22.9392 14.384 23.0832 14.512C23.2272 14.632 23.4152 14.692 23.6472 14.692ZM28.7903 9.328C29.3983 9.328 29.9183 9.444 30.3503 9.676C30.7903 9.908 31.1303 10.244 31.3703 10.684C31.6103 11.124 31.7303 11.664 31.7303 12.304V13.168H27.5063C27.5223 13.672 27.6703 14.068 27.9503 14.356C28.2383 14.644 28.6343 14.788 29.1383 14.788C29.5623 14.788 29.9463 14.748 30.2903 14.668C30.6343 14.58 30.9903 14.448 31.3583 14.272V15.652C31.0383 15.812 30.6983 15.928 30.3383 16C29.9863 16.08 29.5583 16.12 29.0543 16.12C28.3983 16.12 27.8183 16 27.3143 15.76C26.8103 15.512 26.4143 15.14 26.1263 14.644C25.8383 14.148 25.6943 13.524 25.6943 12.772C25.6943 12.004 25.8223 11.368 26.0783 10.864C26.3423 10.352 26.7063 9.968 27.1703 9.712C27.6343 9.456 28.1743 9.328 28.7903 9.328ZM28.8023 10.6C28.4583 10.6 28.1703 10.712 27.9383 10.936C27.7143 11.16 27.5823 11.508 27.5423 11.98H30.0503C30.0503 11.716 30.0023 11.48 29.9063 11.272C29.8183 11.064 29.6823 10.9 29.4983 10.78C29.3143 10.66 29.0823 10.6 28.8023 10.6ZM36.8401 9.328C36.9281 9.328 37.0321 9.332 37.1521 9.34C37.2721 9.348 37.3681 9.36 37.4401 9.376L37.3081 11.056C37.2521 11.04 37.1681 11.028 37.0561 11.02C36.9521 11.004 36.8601 10.996 36.7801 10.996C36.5481 10.996 36.3241 11.028 36.1081 11.092C35.8921 11.148 35.6961 11.24 35.5201 11.368C35.3521 11.496 35.2161 11.668 35.1121 11.884C35.0161 12.092 34.9681 12.352 34.9681 12.664V16H33.1801V9.448H34.5361L34.8001 10.552H34.8841C35.0121 10.328 35.1721 10.124 35.3641 9.94C35.5561 9.756 35.7761 9.608 36.0241 9.496C36.2801 9.384 36.5521 9.328 36.8401 9.328ZM41.3894 14.692C41.5894 14.692 41.7814 14.672 41.9654 14.632C42.1494 14.592 42.3334 14.544 42.5174 14.488V15.82C42.3254 15.9 42.0854 15.968 41.7974 16.024C41.5174 16.088 41.2094 16.12 40.8734 16.12C40.4814 16.12 40.1294 16.056 39.8174 15.928C39.5134 15.8 39.2694 15.58 39.0854 15.268C38.9094 14.948 38.8214 14.508 38.8214 13.948V10.792H37.9694V10.036L38.9534 9.436L39.4694 8.056H40.6094V9.448H42.4454V10.792H40.6094V13.948C40.6094 14.196 40.6814 14.384 40.8254 14.512C40.9694 14.632 41.1574 14.692 41.3894 14.692ZM46.5205 9.316C47.4005 9.316 48.0725 9.508 48.5365 9.892C49.0085 10.268 49.2445 10.848 49.2445 11.632V16H47.9965L47.6485 15.112H47.6005C47.4165 15.344 47.2245 15.536 47.0245 15.688C46.8325 15.84 46.6085 15.948 46.3525 16.012C46.1045 16.084 45.7965 16.12 45.4285 16.12C45.0445 16.12 44.6965 16.048 44.3845 15.904C44.0805 15.752 43.8405 15.524 43.6645 15.22C43.4885 14.908 43.4005 14.516 43.4005 14.044C43.4005 13.348 43.6445 12.836 44.1325 12.508C44.6205 12.172 45.3525 11.988 46.3285 11.956L47.4685 11.92V11.632C47.4685 11.288 47.3765 11.036 47.1925 10.876C47.0165 10.716 46.7685 10.636 46.4485 10.636C46.1285 10.636 45.8165 10.684 45.5125 10.78C45.2085 10.868 44.9045 10.98 44.6005 11.116L44.0125 9.904C44.3645 9.72 44.7525 9.576 45.1765 9.472C45.6085 9.368 46.0565 9.316 46.5205 9.316ZM46.7725 12.988C46.1965 13.004 45.7965 13.108 45.5725 13.3C45.3485 13.492 45.2365 13.744 45.2365 14.056C45.2365 14.328 45.3165 14.524 45.4765 14.644C45.6365 14.756 45.8445 14.812 46.1005 14.812C46.4845 14.812 46.8085 14.7 47.0725 14.476C47.3365 14.244 47.4685 13.92 47.4685 13.504V12.964L46.7725 12.988ZM52.8627 9.448V16H51.0747V9.448H52.8627ZM51.9747 6.88C52.2387 6.88 52.4667 6.944 52.6587 7.072C52.8507 7.192 52.9467 7.42 52.9467 7.756C52.9467 8.084 52.8507 8.312 52.6587 8.44C52.4667 8.568 52.2387 8.632 51.9747 8.632C51.7027 8.632 51.4707 8.568 51.2787 8.44C51.0947 8.312 51.0027 8.084 51.0027 7.756C51.0027 7.42 51.0947 7.192 51.2787 7.072C51.4707 6.944 51.7027 6.88 51.9747 6.88ZM58.4509 9.328C59.1549 9.328 59.7189 9.52 60.1429 9.904C60.5669 10.28 60.7789 10.888 60.7789 11.728V16H58.9909V12.172C58.9909 11.7 58.9069 11.348 58.7389 11.116C58.5709 10.876 58.3029 10.756 57.9349 10.756C57.3909 10.756 57.0189 10.944 56.8189 11.32C56.6189 11.688 56.5189 12.22 56.5189 12.916V16H54.7309V9.448H56.0989L56.3389 10.288H56.4349C56.5789 10.064 56.7549 9.884 56.9629 9.748C57.1709 9.604 57.4029 9.5 57.6589 9.436C57.9149 9.364 58.1789 9.328 58.4509 9.328ZM70.3096 9.328C71.0536 9.328 71.6136 9.52 71.9896 9.904C72.3736 10.28 72.5656 10.888 72.5656 11.728V16H70.7776V12.172C70.7776 11.7 70.6976 11.348 70.5376 11.116C70.3776 10.876 70.1296 10.756 69.7936 10.756C69.3216 10.756 68.9856 10.924 68.7856 11.26C68.5856 11.596 68.4856 12.08 68.4856 12.712V16H66.6976V12.172C66.6976 11.86 66.6616 11.6 66.5896 11.392C66.5176 11.184 66.4096 11.028 66.2656 10.924C66.1216 10.812 65.9376 10.756 65.7136 10.756C65.3856 10.756 65.1256 10.84 64.9336 11.008C64.7416 11.176 64.6056 11.42 64.5256 11.74C64.4456 12.06 64.4056 12.452 64.4056 12.916V16H62.6176V9.448H63.9856L64.2256 10.288H64.3216C64.4576 10.064 64.6256 9.884 64.8256 9.748C65.0256 9.604 65.2456 9.5 65.4856 9.436C65.7336 9.364 65.9816 9.328 66.2296 9.328C66.7096 9.328 67.1176 9.408 67.4536 9.568C67.7896 9.72 68.0456 9.96 68.2216 10.288H68.3776C68.5776 9.952 68.8536 9.708 69.2056 9.556C69.5656 9.404 69.9336 9.328 70.3096 9.328ZM77.1067 9.328C77.7147 9.328 78.2347 9.444 78.6667 9.676C79.1067 9.908 79.4467 10.244 79.6867 10.684C79.9267 11.124 80.0467 11.664 80.0467 12.304V13.168H75.8227C75.8387 13.672 75.9867 14.068 76.2667 14.356C76.5547 14.644 76.9507 14.788 77.4547 14.788C77.8787 14.788 78.2627 14.748 78.6067 14.668C78.9507 14.58 79.3067 14.448 79.6747 14.272V15.652C79.3547 15.812 79.0147 15.928 78.6547 16C78.3027 16.08 77.8747 16.12 77.3707 16.12C76.7147 16.12 76.1347 16 75.6307 15.76C75.1267 15.512 74.7307 15.14 74.4427 14.644C74.1547 14.148 74.0107 13.524 74.0107 12.772C74.0107 12.004 74.1387 11.368 74.3947 10.864C74.6587 10.352 75.0227 9.968 75.4867 9.712C75.9507 9.456 76.4907 9.328 77.1067 9.328ZM77.1187 10.6C76.7747 10.6 76.4867 10.712 76.2547 10.936C76.0307 11.16 75.8987 11.508 75.8587 11.98H78.3667C78.3667 11.716 78.3187 11.48 78.2227 11.272C78.1347 11.064 77.9987 10.9 77.8147 10.78C77.6307 10.66 77.3987 10.6 77.1187 10.6ZM85.2165 9.328C85.9205 9.328 86.4845 9.52 86.9085 9.904C87.3325 10.28 87.5445 10.888 87.5445 11.728V16H85.7565V12.172C85.7565 11.7 85.6725 11.348 85.5045 11.116C85.3365 10.876 85.0685 10.756 84.7005 10.756C84.1565 10.756 83.7845 10.944 83.5845 11.32C83.3845 11.688 83.2845 12.22 83.2845 12.916V16H81.4965V9.448H82.8645L83.1045 10.288H83.2005C83.3445 10.064 83.5205 9.884 83.7285 9.748C83.9365 9.604 84.1685 9.5 84.4245 9.436C84.6805 9.364 84.9445 9.328 85.2165 9.328ZM92.1433 14.692C92.3433 14.692 92.5353 14.672 92.7193 14.632C92.9033 14.592 93.0873 14.544 93.2713 14.488V15.82C93.0793 15.9 92.8393 15.968 92.5513 16.024C92.2713 16.088 91.9633 16.12 91.6273 16.12C91.2353 16.12 90.8833 16.056 90.5713 15.928C90.2673 15.8 90.0233 15.58 89.8393 15.268C89.6633 14.948 89.5753 14.508 89.5753 13.948V10.792H88.7233V10.036L89.7073 9.436L90.2233 8.056H91.3633V9.448H93.1993V10.792H91.3633V13.948C91.3633 14.196 91.4353 14.384 91.5793 14.512C91.7233 14.632 91.9113 14.692 92.1433 14.692Z" fill="white"/>
</svg>
