<svg width="67" height="24" viewBox="0 0 67 24" fill="none" xmlns="http://www.w3.org/2000/svg">
<rect width="67" height="24" rx="12" fill="#FF5722"/>
<path d="M9.75869 16L7.69469 9.28H7.64669C7.65469 9.44 7.66669 9.68 7.68269 10C7.69869 10.32 7.71469 10.664 7.73069 11.032C7.74669 11.392 7.75469 11.72 7.75469 12.016V16H6.13469V7.432H8.60669L10.6347 13.984H10.6707L12.8187 7.432H15.2907V16H13.5987V11.944C13.5987 11.672 13.6027 11.36 13.6107 11.008C13.6267 10.656 13.6387 10.324 13.6467 10.012C13.6627 9.692 13.6747 9.452 13.6827 9.292H13.6347L11.4267 16H9.75869ZM19.999 9.316C20.879 9.316 21.551 9.508 22.015 9.892C22.487 10.268 22.723 10.848 22.723 11.632V16H21.475L21.127 15.112H21.079C20.895 15.344 20.703 15.536 20.503 15.688C20.311 15.84 20.087 15.948 19.831 16.012C19.583 16.084 19.275 16.12 18.907 16.12C18.523 16.12 18.175 16.048 17.863 15.904C17.559 15.752 17.319 15.524 17.143 15.22C16.967 14.908 16.879 14.516 16.879 14.044C16.879 13.348 17.123 12.836 17.611 12.508C18.099 12.172 18.831 11.988 19.807 11.956L20.947 11.92V11.632C20.947 11.288 20.855 11.036 20.671 10.876C20.495 10.716 20.247 10.636 19.927 10.636C19.607 10.636 19.295 10.684 18.991 10.78C18.687 10.868 18.383 10.98 18.079 11.116L17.491 9.904C17.843 9.72 18.231 9.576 18.655 9.472C19.087 9.368 19.535 9.316 19.999 9.316ZM20.251 12.988C19.675 13.004 19.275 13.108 19.051 13.3C18.827 13.492 18.715 13.744 18.715 14.056C18.715 14.328 18.795 14.524 18.955 14.644C19.115 14.756 19.323 14.812 19.579 14.812C19.963 14.812 20.287 14.7 20.551 14.476C20.815 14.244 20.947 13.92 20.947 13.504V12.964L20.251 12.988ZM26.6772 9.328C27.0772 9.328 27.4372 9.408 27.7572 9.568C28.0772 9.728 28.3492 9.968 28.5732 10.288H28.6212L28.7652 9.448H30.2772V16.012C30.2772 16.636 30.1532 17.16 29.9052 17.584C29.6652 18.008 29.3012 18.328 28.8132 18.544C28.3252 18.768 27.7212 18.88 27.0012 18.88C26.5372 18.88 26.1052 18.852 25.7052 18.796C25.3132 18.74 24.9292 18.64 24.5532 18.496V17.068C24.8252 17.18 25.0972 17.272 25.3692 17.344C25.6492 17.424 25.9332 17.48 26.2212 17.512C26.5172 17.552 26.8132 17.572 27.1092 17.572C27.5732 17.572 27.9172 17.448 28.1412 17.2C28.3732 16.952 28.4892 16.58 28.4892 16.084V15.952C28.4892 15.816 28.4932 15.676 28.5012 15.532C28.5172 15.388 28.5292 15.26 28.5372 15.148H28.4892C28.2652 15.492 27.9972 15.74 27.6852 15.892C27.3732 16.044 27.0212 16.12 26.6292 16.12C25.8532 16.12 25.2452 15.824 24.8052 15.232C24.3732 14.632 24.1572 13.8 24.1572 12.736C24.1572 12.016 24.2572 11.404 24.4572 10.9C24.6572 10.388 24.9452 10 25.3212 9.736C25.7052 9.464 26.1572 9.328 26.6772 9.328ZM27.2412 10.78C26.9612 10.78 26.7252 10.856 26.5332 11.008C26.3492 11.152 26.2092 11.372 26.1132 11.668C26.0252 11.956 25.9812 12.32 25.9812 12.76C25.9812 13.416 26.0852 13.908 26.2932 14.236C26.5012 14.556 26.8252 14.716 27.2652 14.716C27.4972 14.716 27.6972 14.688 27.8652 14.632C28.0332 14.568 28.1692 14.468 28.2732 14.332C28.3852 14.188 28.4692 14.004 28.5252 13.78C28.5812 13.556 28.6092 13.284 28.6092 12.964V12.748C28.6092 12.276 28.5612 11.896 28.4652 11.608C28.3692 11.32 28.2212 11.112 28.0212 10.984C27.8212 10.848 27.5612 10.78 27.2412 10.78ZM34.8349 9.316C35.7149 9.316 36.3869 9.508 36.8509 9.892C37.3229 10.268 37.5589 10.848 37.5589 11.632V16H36.3109L35.9629 15.112H35.9149C35.7309 15.344 35.5389 15.536 35.3389 15.688C35.1469 15.84 34.9229 15.948 34.6669 16.012C34.4189 16.084 34.1109 16.12 33.7429 16.12C33.3589 16.12 33.0109 16.048 32.6989 15.904C32.3949 15.752 32.1549 15.524 31.9789 15.22C31.8029 14.908 31.7149 14.516 31.7149 14.044C31.7149 13.348 31.9589 12.836 32.4469 12.508C32.9349 12.172 33.6669 11.988 34.6429 11.956L35.7829 11.92V11.632C35.7829 11.288 35.6909 11.036 35.5069 10.876C35.3309 10.716 35.0829 10.636 34.7629 10.636C34.4429 10.636 34.1309 10.684 33.8269 10.78C33.5229 10.868 33.2189 10.98 32.9149 11.116L32.3269 9.904C32.6789 9.72 33.0669 9.576 33.4909 9.472C33.9229 9.368 34.3709 9.316 34.8349 9.316ZM35.0869 12.988C34.5109 13.004 34.1109 13.108 33.8869 13.3C33.6629 13.492 33.5509 13.744 33.5509 14.056C33.5509 14.328 33.6309 14.524 33.7909 14.644C33.9509 14.756 34.1589 14.812 34.4149 14.812C34.7989 14.812 35.1229 14.7 35.3869 14.476C35.6509 14.244 35.7829 13.92 35.7829 13.504V12.964L35.0869 12.988ZM43.9491 16H38.7771V14.944L41.8131 10.816H38.9571V9.448H43.8411V10.612L40.8891 14.632H43.9491V16ZM47.0365 9.448V16H45.2485V9.448H47.0365ZM46.1485 6.88C46.4125 6.88 46.6405 6.944 46.8325 7.072C47.0245 7.192 47.1205 7.42 47.1205 7.756C47.1205 8.084 47.0245 8.312 46.8325 8.44C46.6405 8.568 46.4125 8.632 46.1485 8.632C45.8765 8.632 45.6445 8.568 45.4525 8.44C45.2685 8.312 45.1765 8.084 45.1765 7.756C45.1765 7.42 45.2685 7.192 45.4525 7.072C45.6445 6.944 45.8765 6.88 46.1485 6.88ZM52.6248 9.328C53.3288 9.328 53.8928 9.52 54.3168 9.904C54.7408 10.28 54.9528 10.888 54.9528 11.728V16H53.1648V12.172C53.1648 11.7 53.0808 11.348 52.9128 11.116C52.7448 10.876 52.4768 10.756 52.1088 10.756C51.5648 10.756 51.1928 10.944 50.9928 11.32C50.7928 11.688 50.6928 12.22 50.6928 12.916V16H48.9048V9.448H50.2728L50.5128 10.288H50.6088C50.7528 10.064 50.9288 9.884 51.1367 9.748C51.3448 9.604 51.5768 9.5 51.8328 9.436C52.0888 9.364 52.3528 9.328 52.6248 9.328ZM59.4915 9.328C60.0995 9.328 60.6195 9.444 61.0515 9.676C61.4915 9.908 61.8315 10.244 62.0715 10.684C62.3115 11.124 62.4315 11.664 62.4315 12.304V13.168H58.2075C58.2235 13.672 58.3715 14.068 58.6515 14.356C58.9395 14.644 59.3355 14.788 59.8395 14.788C60.2635 14.788 60.6475 14.748 60.9915 14.668C61.3355 14.58 61.6915 14.448 62.0595 14.272V15.652C61.7395 15.812 61.3995 15.928 61.0395 16C60.6875 16.08 60.2595 16.12 59.7555 16.12C59.0995 16.12 58.5195 16 58.0155 15.76C57.5115 15.512 57.1155 15.14 56.8275 14.644C56.5395 14.148 56.3955 13.524 56.3955 12.772C56.3955 12.004 56.5235 11.368 56.7795 10.864C57.0435 10.352 57.4075 9.968 57.8715 9.712C58.3355 9.456 58.8755 9.328 59.4915 9.328ZM59.5035 10.6C59.1595 10.6 58.8715 10.712 58.6395 10.936C58.4155 11.16 58.2835 11.508 58.2435 11.98H60.7515C60.7515 11.716 60.7035 11.48 60.6075 11.272C60.5195 11.064 60.3835 10.9 60.1995 10.78C60.0155 10.66 59.7835 10.6 59.5035 10.6Z" fill="white"/>
</svg>
