<svg width="64" height="24" viewBox="0 0 64 24" fill="none" xmlns="http://www.w3.org/2000/svg">
<rect width="64" height="24" rx="12" fill="#FF5722"/>
<path d="M18.507 13.624C18.507 14.128 18.383 14.568 18.135 14.944C17.887 15.32 17.527 15.612 17.055 15.82C16.591 16.02 16.023 16.12 15.351 16.12C15.055 16.12 14.763 16.1 14.475 16.06C14.195 16.02 13.923 15.964 13.659 15.892C13.403 15.812 13.159 15.716 12.927 15.604V13.912C13.335 14.088 13.755 14.252 14.187 14.404C14.627 14.548 15.063 14.62 15.495 14.62C15.791 14.62 16.027 14.58 16.203 14.5C16.387 14.42 16.519 14.312 16.599 14.176C16.687 14.04 16.731 13.884 16.731 13.708C16.731 13.492 16.655 13.308 16.503 13.156C16.359 13.004 16.163 12.864 15.915 12.736C15.667 12.6 15.383 12.456 15.063 12.304C14.863 12.208 14.647 12.096 14.415 11.968C14.183 11.832 13.959 11.668 13.743 11.476C13.535 11.276 13.363 11.036 13.227 10.756C13.091 10.476 13.023 10.14 13.023 9.748C13.023 9.236 13.139 8.8 13.371 8.44C13.611 8.072 13.947 7.792 14.379 7.6C14.819 7.408 15.335 7.312 15.927 7.312C16.375 7.312 16.799 7.364 17.199 7.468C17.607 7.572 18.031 7.72 18.471 7.912L17.883 9.328C17.491 9.168 17.139 9.044 16.827 8.956C16.515 8.868 16.195 8.824 15.867 8.824C15.643 8.824 15.451 8.86 15.291 8.932C15.131 9.004 15.007 9.104 14.919 9.232C14.839 9.36 14.799 9.512 14.799 9.688C14.799 9.888 14.859 10.06 14.979 10.204C15.099 10.34 15.279 10.472 15.519 10.6C15.759 10.728 16.059 10.88 16.419 11.056C16.859 11.264 17.231 11.48 17.535 11.704C17.847 11.928 18.087 12.192 18.255 12.496C18.423 12.8 18.507 13.176 18.507 13.624ZM23.5684 9.328C24.3044 9.328 24.9004 9.616 25.3564 10.192C25.8124 10.76 26.0404 11.6 26.0404 12.712C26.0404 13.456 25.9324 14.084 25.7164 14.596C25.5004 15.1 25.2044 15.48 24.8284 15.736C24.4524 15.992 24.0164 16.12 23.5204 16.12C23.2084 16.12 22.9364 16.08 22.7044 16C22.4804 15.92 22.2884 15.816 22.1284 15.688C21.9684 15.56 21.8284 15.424 21.7084 15.28H21.6124C21.6444 15.432 21.6684 15.592 21.6844 15.76C21.7004 15.92 21.7084 16.08 21.7084 16.24V18.88H19.9204V9.448H21.3724L21.6244 10.3H21.7084C21.8284 10.124 21.9724 9.964 22.1404 9.82C22.3084 9.668 22.5084 9.548 22.7404 9.46C22.9804 9.372 23.2564 9.328 23.5684 9.328ZM22.9924 10.756C22.6804 10.756 22.4324 10.82 22.2484 10.948C22.0644 11.076 21.9284 11.272 21.8404 11.536C21.7604 11.792 21.7164 12.116 21.7084 12.508V12.7C21.7084 13.124 21.7484 13.484 21.8284 13.78C21.9084 14.068 22.0444 14.288 22.2364 14.44C22.4284 14.592 22.6884 14.668 23.0164 14.668C23.2884 14.668 23.5124 14.592 23.6884 14.44C23.8644 14.288 23.9964 14.064 24.0844 13.768C24.1724 13.472 24.2164 13.112 24.2164 12.688C24.2164 12.048 24.1164 11.568 23.9164 11.248C23.7244 10.92 23.4164 10.756 22.9924 10.756ZM33.4661 12.712C33.4661 13.256 33.3901 13.74 33.2381 14.164C33.0941 14.588 32.8821 14.948 32.6021 15.244C32.3301 15.532 31.9981 15.752 31.6061 15.904C31.2141 16.048 30.7701 16.12 30.2741 16.12C29.8181 16.12 29.3941 16.048 29.0021 15.904C28.6181 15.752 28.2861 15.532 28.0061 15.244C27.7261 14.948 27.5061 14.588 27.3461 14.164C27.1941 13.74 27.1181 13.256 27.1181 12.712C27.1181 11.984 27.2461 11.372 27.5021 10.876C27.7581 10.372 28.1261 9.988 28.6061 9.724C29.0861 9.46 29.6541 9.328 30.3101 9.328C30.9261 9.328 31.4701 9.46 31.9421 9.724C32.4141 9.988 32.7861 10.372 33.0581 10.876C33.3301 11.372 33.4661 11.984 33.4661 12.712ZM28.9421 12.712C28.9421 13.144 28.9861 13.508 29.0741 13.804C29.1701 14.092 29.3181 14.312 29.5181 14.464C29.7181 14.608 29.9781 14.68 30.2981 14.68C30.6181 14.68 30.8741 14.608 31.0661 14.464C31.2661 14.312 31.4101 14.092 31.4981 13.804C31.5941 13.508 31.6421 13.144 31.6421 12.712C31.6421 12.28 31.5941 11.92 31.4981 11.632C31.4101 11.344 31.2661 11.128 31.0661 10.984C30.8661 10.84 30.6061 10.768 30.2861 10.768C29.8141 10.768 29.4701 10.932 29.2541 11.26C29.0461 11.58 28.9421 12.064 28.9421 12.712ZM38.6038 9.328C38.6918 9.328 38.7958 9.332 38.9158 9.34C39.0358 9.348 39.1318 9.36 39.2038 9.376L39.0718 11.056C39.0158 11.04 38.9318 11.028 38.8198 11.02C38.7158 11.004 38.6238 10.996 38.5438 10.996C38.3118 10.996 38.0878 11.028 37.8718 11.092C37.6558 11.148 37.4598 11.24 37.2838 11.368C37.1158 11.496 36.9798 11.668 36.8758 11.884C36.7798 12.092 36.7318 12.352 36.7318 12.664V16H34.9438V9.448H36.2998L36.5638 10.552H36.6478C36.7758 10.328 36.9358 10.124 37.1278 9.94C37.3198 9.756 37.5398 9.608 37.7878 9.496C38.0438 9.384 38.3158 9.328 38.6038 9.328ZM43.153 14.692C43.353 14.692 43.545 14.672 43.729 14.632C43.913 14.592 44.097 14.544 44.281 14.488V15.82C44.089 15.9 43.849 15.968 43.561 16.024C43.281 16.088 42.973 16.12 42.637 16.12C42.245 16.12 41.893 16.056 41.581 15.928C41.277 15.8 41.033 15.58 40.849 15.268C40.673 14.948 40.585 14.508 40.585 13.948V10.792H39.733V10.036L40.717 9.436L41.233 8.056H42.373V9.448H44.209V10.792H42.373V13.948C42.373 14.196 42.445 14.384 42.589 14.512C42.733 14.632 42.921 14.692 43.153 14.692ZM50.1682 14.056C50.1682 14.496 50.0642 14.872 49.8562 15.184C49.6482 15.488 49.3362 15.72 48.9202 15.88C48.5042 16.04 47.9882 16.12 47.3722 16.12C46.9162 16.12 46.5242 16.088 46.1962 16.024C45.8682 15.968 45.5402 15.872 45.2122 15.736V14.26C45.5642 14.42 45.9442 14.552 46.3522 14.656C46.7602 14.76 47.1202 14.812 47.4322 14.812C47.7842 14.812 48.0322 14.76 48.1762 14.656C48.3282 14.552 48.4042 14.416 48.4042 14.248C48.4042 14.136 48.3722 14.036 48.3082 13.948C48.2522 13.86 48.1242 13.76 47.9242 13.648C47.7242 13.536 47.4122 13.392 46.9882 13.216C46.5802 13.04 46.2442 12.868 45.9802 12.7C45.7162 12.524 45.5202 12.316 45.3922 12.076C45.2642 11.828 45.2002 11.52 45.2002 11.152C45.2002 10.544 45.4362 10.088 45.9082 9.784C46.3802 9.48 47.0082 9.328 47.7922 9.328C48.2002 9.328 48.5882 9.368 48.9562 9.448C49.3242 9.528 49.7042 9.66 50.0962 9.844L49.5562 11.128C49.3402 11.032 49.1322 10.948 48.9322 10.876C48.7322 10.804 48.5362 10.748 48.3442 10.708C48.1602 10.668 47.9682 10.648 47.7682 10.648C47.5042 10.648 47.3042 10.684 47.1682 10.756C47.0402 10.828 46.9762 10.936 46.9762 11.08C46.9762 11.184 47.0082 11.28 47.0722 11.368C47.1442 11.448 47.2762 11.536 47.4682 11.632C47.6682 11.728 47.9602 11.856 48.3442 12.016C48.7202 12.168 49.0442 12.328 49.3162 12.496C49.5882 12.656 49.7962 12.86 49.9402 13.108C50.0922 13.348 50.1682 13.664 50.1682 14.056Z" fill="white"/>
</svg>
