<svg width="64" height="24" viewBox="0 0 64 24" fill="none" xmlns="http://www.w3.org/2000/svg">
<rect width="64" height="24" rx="12" fill="#FF5722"/>
<path d="M9.24328 16H7.43128V8.944H5.10328V7.432H11.5713V8.944H9.24328V16ZM15.8108 9.328C15.8988 9.328 16.0028 9.332 16.1228 9.34C16.2428 9.348 16.3388 9.36 16.4108 9.376L16.2788 11.056C16.2228 11.04 16.1388 11.028 16.0268 11.02C15.9228 11.004 15.8308 10.996 15.7508 10.996C15.5188 10.996 15.2948 11.028 15.0788 11.092C14.8628 11.148 14.6668 11.24 14.4908 11.368C14.3228 11.496 14.1868 11.668 14.0828 11.884C13.9868 12.092 13.9388 12.352 13.9388 12.664V16H12.1508V9.448H13.5068L13.7708 10.552H13.8548C13.9828 10.328 14.1428 10.124 14.3348 9.94C14.5268 9.756 14.7468 9.608 14.9948 9.496C15.2508 9.384 15.5228 9.328 15.8108 9.328ZM20.0657 9.328C20.6737 9.328 21.1937 9.444 21.6257 9.676C22.0657 9.908 22.4057 10.244 22.6457 10.684C22.8857 11.124 23.0057 11.664 23.0057 12.304V13.168H18.7817C18.7977 13.672 18.9457 14.068 19.2257 14.356C19.5137 14.644 19.9097 14.788 20.4137 14.788C20.8377 14.788 21.2217 14.748 21.5657 14.668C21.9097 14.58 22.2657 14.448 22.6337 14.272V15.652C22.3137 15.812 21.9737 15.928 21.6137 16C21.2617 16.08 20.8337 16.12 20.3297 16.12C19.6737 16.12 19.0937 16 18.5897 15.76C18.0857 15.512 17.6897 15.14 17.4017 14.644C17.1137 14.148 16.9697 13.524 16.9697 12.772C16.9697 12.004 17.0977 11.368 17.3537 10.864C17.6177 10.352 17.9817 9.968 18.4457 9.712C18.9097 9.456 19.4497 9.328 20.0657 9.328ZM20.0777 10.6C19.7337 10.6 19.4457 10.712 19.2137 10.936C18.9897 11.16 18.8577 11.508 18.8177 11.98H21.3257C21.3257 11.716 21.2777 11.48 21.1817 11.272C21.0937 11.064 20.9577 10.9 20.7737 10.78C20.5897 10.66 20.3577 10.6 20.0777 10.6ZM28.1755 9.328C28.8795 9.328 29.4435 9.52 29.8675 9.904C30.2915 10.28 30.5035 10.888 30.5035 11.728V16H28.7155V12.172C28.7155 11.7 28.6315 11.348 28.4635 11.116C28.2955 10.876 28.0275 10.756 27.6595 10.756C27.1155 10.756 26.7435 10.944 26.5435 11.32C26.3435 11.688 26.2435 12.22 26.2435 12.916V16H24.4555V9.448H25.8235L26.0635 10.288H26.1595C26.3035 10.064 26.4795 9.884 26.6875 9.748C26.8955 9.604 27.1275 9.5 27.3835 9.436C27.6395 9.364 27.9035 9.328 28.1755 9.328ZM34.4183 16.12C33.6903 16.12 33.0943 15.836 32.6303 15.268C32.1743 14.692 31.9463 13.848 31.9463 12.736C31.9463 11.616 32.1783 10.768 32.6423 10.192C33.1063 9.616 33.7143 9.328 34.4663 9.328C34.7783 9.328 35.0543 9.372 35.2943 9.46C35.5343 9.54 35.7383 9.652 35.9063 9.796C36.0823 9.94 36.2303 10.104 36.3503 10.288H36.4103C36.3863 10.16 36.3583 9.976 36.3263 9.736C36.2943 9.488 36.2783 9.236 36.2783 8.98V6.88H38.0663V16H36.6983L36.3503 15.148H36.2783C36.1663 15.324 36.0223 15.488 35.8463 15.64C35.6783 15.784 35.4783 15.9 35.2463 15.988C35.0143 16.076 34.7383 16.12 34.4183 16.12ZM35.0423 14.692C35.5383 14.692 35.8863 14.548 36.0863 14.26C36.2863 13.964 36.3903 13.524 36.3983 12.94V12.748C36.3983 12.108 36.2983 11.62 36.0983 11.284C35.9063 10.948 35.5463 10.78 35.0183 10.78C34.6263 10.78 34.3183 10.952 34.0943 11.296C33.8703 11.632 33.7583 12.12 33.7583 12.76C33.7583 13.4 33.8703 13.884 34.0943 14.212C34.3183 14.532 34.6343 14.692 35.0423 14.692ZM41.724 9.448V16H39.936V9.448H41.724ZM40.836 6.88C41.1 6.88 41.328 6.944 41.52 7.072C41.712 7.192 41.808 7.42 41.808 7.756C41.808 8.084 41.712 8.312 41.52 8.44C41.328 8.568 41.1 8.632 40.836 8.632C40.564 8.632 40.332 8.568 40.14 8.44C39.956 8.312 39.864 8.084 39.864 7.756C39.864 7.42 39.956 7.192 40.14 7.072C40.332 6.944 40.564 6.88 40.836 6.88ZM47.3123 9.328C48.0163 9.328 48.5803 9.52 49.0043 9.904C49.4283 10.28 49.6403 10.888 49.6403 11.728V16H47.8523V12.172C47.8523 11.7 47.7683 11.348 47.6003 11.116C47.4323 10.876 47.1643 10.756 46.7963 10.756C46.2523 10.756 45.8803 10.944 45.6803 11.32C45.4803 11.688 45.3803 12.22 45.3803 12.916V16H43.5923V9.448H44.9603L45.2003 10.288H45.2963C45.4403 10.064 45.6163 9.884 45.8242 9.748C46.0323 9.604 46.2643 9.5 46.5203 9.436C46.7763 9.364 47.0403 9.328 47.3123 9.328ZM53.603 9.328C54.003 9.328 54.363 9.408 54.683 9.568C55.003 9.728 55.275 9.968 55.499 10.288H55.547L55.691 9.448H57.203V16.012C57.203 16.636 57.079 17.16 56.831 17.584C56.591 18.008 56.227 18.328 55.739 18.544C55.251 18.768 54.647 18.88 53.927 18.88C53.463 18.88 53.031 18.852 52.631 18.796C52.239 18.74 51.855 18.64 51.479 18.496V17.068C51.751 17.18 52.023 17.272 52.295 17.344C52.575 17.424 52.859 17.48 53.147 17.512C53.443 17.552 53.739 17.572 54.035 17.572C54.499 17.572 54.843 17.448 55.067 17.2C55.299 16.952 55.415 16.58 55.415 16.084V15.952C55.415 15.816 55.419 15.676 55.427 15.532C55.443 15.388 55.455 15.26 55.463 15.148H55.415C55.191 15.492 54.923 15.74 54.611 15.892C54.299 16.044 53.947 16.12 53.555 16.12C52.779 16.12 52.171 15.824 51.731 15.232C51.299 14.632 51.083 13.8 51.083 12.736C51.083 12.016 51.183 11.404 51.383 10.9C51.583 10.388 51.871 10 52.247 9.736C52.631 9.464 53.083 9.328 53.603 9.328ZM54.167 10.78C53.887 10.78 53.651 10.856 53.459 11.008C53.275 11.152 53.135 11.372 53.039 11.668C52.951 11.956 52.907 12.32 52.907 12.76C52.907 13.416 53.011 13.908 53.219 14.236C53.427 14.556 53.751 14.716 54.191 14.716C54.423 14.716 54.623 14.688 54.791 14.632C54.959 14.568 55.095 14.468 55.199 14.332C55.311 14.188 55.395 14.004 55.451 13.78C55.507 13.556 55.535 13.284 55.535 12.964V12.748C55.535 12.276 55.487 11.896 55.391 11.608C55.295 11.32 55.147 11.112 54.947 10.984C54.747 10.848 54.487 10.78 54.167 10.78Z" fill="white"/>
</svg>
